<svg width="48" height="48" viewBox="0 0 48 48" fill="black" xmlns="http://www.w3.org/2000/svg">
<path d="M18.5925 8.50237C17.8487 9.21563 17.7984 10.4246 18.4803 11.2027L29.696 24L18.4803 36.7973C17.8552 37.5105 17.8454 38.5859 18.421 39.3095L18.5925 39.4976C19.3363 40.2109 20.4921 40.1583 21.1739 39.3802L33.5198 25.2915C33.5276 25.2825 33.5354 25.2734 33.5431 25.2643L33.4075 25.4089C33.4912 25.3287 33.566 25.2422 33.6321 25.1507C33.6564 25.1168 33.6795 25.0825 33.7014 25.0476C33.7237 25.0123 33.745 24.9758 33.765 24.9388C33.7831 24.905 33.7999 24.8715 33.8157 24.8376C33.8344 24.7976 33.852 24.7562 33.8681 24.7143C33.8824 24.6772 33.8955 24.6397 33.9075 24.6018C33.9192 24.5643 33.9299 24.5269 33.9394 24.4892C33.9501 24.4474 33.9593 24.4051 33.9671 24.3626C33.975 24.3189 33.9815 24.275 33.9866 24.2309C33.9905 24.1988 33.9934 24.1661 33.9956 24.1334C33.9985 24.0884 34 24.0436 34 23.9988C34 23.955 33.9985 23.9109 33.9956 23.8669C33.9934 23.8339 33.9905 23.8012 33.9867 23.7686C33.9815 23.725 33.975 23.6811 33.9669 23.6374C33.9593 23.5949 33.9501 23.5526 33.9395 23.5106C33.9299 23.4731 33.9192 23.4357 33.9075 23.3986C33.8955 23.3603 33.8824 23.3228 33.8681 23.2856C33.852 23.2438 33.8344 23.2024 33.8154 23.1616C33.7999 23.1285 33.7831 23.095 33.7652 23.0619C33.745 23.0242 33.7237 22.9877 33.7012 22.9518C33.6795 22.9175 33.6564 22.8832 33.6321 22.8495C33.566 22.7578 33.4912 22.6713 33.4075 22.5911L33.5431 22.7357C33.5354 22.7266 33.5276 22.7175 33.5198 22.7085L21.1739 8.61978C20.4921 7.84168 19.3363 7.78911 18.5925 8.50237Z" />
</svg>
