<svg xmlns="http://www.w3.org/2000/svg" xmlns:xlink="http://www.w3.org/1999/xlink" width="30" height="30" viewBox="0 0 30 30">
  <defs>
    <clipPath id="clip-hike_on">
      <rect width="30" height="30"/>
    </clipPath>
  </defs>
  <g id="hike_on" clip-path="url(#clip-hike_on)">
    <circle id="Ellipse_2" data-name="Ellipse 2" cx="15" cy="15" r="15" fill="#bf5700"/>
    <g id="noun-mountain-4969765" transform="translate(-116.907 -128.493)">
      <path id="Path_6" data-name="Path 6" d="M171.023,143.436a.4.4,0,0,1-.13.156l-1.16.823-1.85,3.58a1.974,1.974,0,0,1,.365.239,2.256,2.256,0,0,1,3.394.036,2.061,2.061,0,0,1,2.629-.036,2.254,2.254,0,0,1,3.3-.064A2.463,2.463,0,0,1,180,147.137l-2.877-4.817-.609-.237a.382.382,0,0,1-.189-.156l-2.7-4.254a.114.114,0,0,0-.149-.04,2.9,2.9,0,0,1-2.61.031.1.1,0,0,0-.09,0,.109.109,0,0,0-.066.061l-.269.6a11.119,11.119,0,0,1-2.785,3.776l-.968.856a.265.265,0,0,0-.058.074l-2.143,4.1c.031,0,.061-.009.092-.009a2.631,2.631,0,0,1,1.815.733,1.914,1.914,0,0,1,.72-.06l1.969-3.811a.393.393,0,0,1,.122-.14l1.152-.818.985-2.133a.393.393,0,0,1,.714.33Z" transform="translate(-40.229)" fill="#fff"/>
      <path id="Path_7" data-name="Path 7" d="M139.465,386.7a1.861,1.861,0,0,0-1.721,1.147.392.392,0,0,1-.709.032,1.474,1.474,0,0,0-2.613-.024.391.391,0,0,1-.326.2.376.376,0,0,1-.343-.173,1.209,1.209,0,0,0-2.04.05.386.386,0,0,1-.352.187.394.394,0,0,1-.333-.217,1.475,1.475,0,0,0-2.627-.051.391.391,0,0,1-.326.2.373.373,0,0,1-.343-.172,1.216,1.216,0,0,0-1.509-.423.393.393,0,0,1-.463-.1,1.855,1.855,0,0,0-3.235.811H141.29a1.871,1.871,0,0,0-1.825-1.472Z" transform="translate(0 -238.807)" fill="#fff"/>
    </g>
  </g>
</svg>
