<svg xmlns="http://www.w3.org/2000/svg" viewBox="-5 -10 110 110"><path d="M96.469 99H3.535a2.296 2.296 0 0 1-2.297-2.297c0-9.902 3.027-18.098 8.023-24.578 5.563-7.21 13.551-12.234 22.488-15.074a2.284 2.284 0 0 1 2.18.445l.004-.003c2.024 1.734 4.492 3.136 7.266 4.101 2.68.934 5.656 1.45 8.8 1.45 3.149 0 6.126-.516 8.801-1.45 2.774-.965 5.243-2.367 7.266-4.101a2.29 2.29 0 0 1 2.32-.395c8.883 2.852 16.816 7.855 22.348 15.031 5 6.477 8.024 14.672 8.024 24.578a2.296 2.296 0 0 1-2.297 2.297zM68.66 46.051c-4.777 4.777-11.375 7.73-18.66 7.73s-13.883-2.953-18.66-7.73c-4.777-4.777-7.727-11.375-7.727-18.66s2.953-13.883 7.727-18.66c4.777-4.777 11.375-7.73 18.66-7.73s13.883 2.953 18.66 7.73c4.777 4.777 7.73 11.375 7.73 18.66s-2.953 13.883-7.73 18.66z" fill="#fff"/></svg>