<svg xmlns="http://www.w3.org/2000/svg" xmlns:xlink="http://www.w3.org/1999/xlink" width="30" height="30" viewBox="0 0 30 30">
  <defs>
    <clipPath id="clip-view_off">
      <rect width="30" height="30"/>
    </clipPath>
  </defs>
  <g id="view_off" clip-path="url(#clip-view_off)">
    <circle id="Ellipse_1" data-name="Ellipse 1" cx="15" cy="15" r="15"/>
    <g id="noun-binoculars-100530" transform="translate(-64.257 -92.29)">
      <path id="Path_1" data-name="Path 1" d="M383.833,102.691a3.324,3.324,0,0,1,1.453-.43,3.01,3.01,0,0,1,.737.082,1.566,1.566,0,0,0-1.453-.921,1.6,1.6,0,0,0-1.6,1.6v.02a8.336,8.336,0,0,0,.859-.348Z" transform="translate(-302.683 -0.004)" fill="#fff"/>
      <path id="Path_2" data-name="Path 2" d="M225.044,102.257a3.582,3.582,0,0,1,1.637.471,6.69,6.69,0,0,0,.675.286,1.6,1.6,0,0,0-3.049-.675,3.013,3.013,0,0,1,.737-.082Z" transform="translate(-149.235)" fill="#fff"/>
      <path id="Path_3" data-name="Path 3" d="M435.034,267.818a2.991,2.991,0,0,1,2.987-2.987,2.354,2.354,0,0,1,.389.02,2.388,2.388,0,0,0-1.35-.409,2.441,2.441,0,0,0-2.435,2.435,2.388,2.388,0,0,0,.409,1.35,2.733,2.733,0,0,0,0-.409Z" transform="translate(-352.636 -157.663)" fill="#fff"/>
      <path id="Path_4" data-name="Path 4" d="M87.1,148.377l-2.66-2.64v.02a2.546,2.546,0,0,0-1.862-.778c-.941,0-1.719.941-3.4.941s-2.21-.941-3.4-.941a2.546,2.546,0,0,0-1.862.778l-2.455,2.476a3.311,3.311,0,0,0-.655.655,3.985,3.985,0,0,0,3.151,6.4,3.948,3.948,0,0,0,3.724-2.619,2.035,2.035,0,0,0,3.028,0,3.964,3.964,0,0,0,7.694-1.35,4,4,0,0,0-1.309-2.947Zm-13.136,6.077a3.12,3.12,0,1,1,3.131-3.11A3.131,3.131,0,0,1,73.968,154.454Zm5.238-2.189a.941.941,0,1,1,.941-.941A.939.939,0,0,1,79.206,152.264Zm5.238,2.189a3.131,3.131,0,1,1,3.131-3.131A3.131,3.131,0,0,1,84.444,154.454Z" transform="translate(0 -42.13)" fill="#fff"/>
      <path id="Path_5" data-name="Path 5" d="M116.454,267.818a2.991,2.991,0,0,1,2.987-2.987,2.353,2.353,0,0,1,.389.02,2.388,2.388,0,0,0-1.35-.409,2.441,2.441,0,0,0-2.435,2.435,2.388,2.388,0,0,0,.409,1.35,2.735,2.735,0,0,0,0-.409Z" transform="translate(-44.533 -157.663)" fill="#fff"/>
    </g>
  </g>
</svg>
