<svg xmlns="http://www.w3.org/2000/svg" viewBox="-5 -10 110 110" fill="#fff"><path d="M16.449 63h13.238c.059.059.11.121.172.172l22.539 17.53c1.46 1.141 3.601.102 3.601-1.76V21.057c0-1.851-2.128-2.898-3.601-1.762l-22.54 17.531c-.058.051-.109.11-.171.172H16.449a3.45 3.45 0 0 0-3.45 3.45v19.109a3.45 3.45 0 0 0 3.45 3.449zM62.77 60.641c-.469.371-.77.91-.77 1.512v.34c0 1.539 1.762 2.421 2.989 1.488C69.34 60.71 72 55.539 72 50S69.33 39.28 64.99 36.02c-1.23-.922-2.989-.04-2.989 1.488v.34c0 .602.301 1.14.77 1.512C66.008 41.89 68 45.81 68 50s-1.98 8.122-5.23 10.642z"/><path d="M62 72.77c0 1.34 1.36 2.23 2.602 1.719C74.402 70.449 81 60.809 81 50.009c0-10.801-6.61-20.441-16.398-24.48-1.239-.512-2.602.379-2.602 1.719v.289c0 .738.43 1.422 1.11 1.699C71.41 32.677 77 40.856 77 50.016s-5.59 17.34-13.89 20.782c-.68.281-1.11.969-1.11 1.7v.288z"/></svg>